<svg width="487" height="504" viewBox="0 0 487 504" fill="none" xmlns="http://www.w3.org/2000/svg">
<rect x="201" y="301" width="85" height="193" rx="22" stroke="#696969" stroke-width="2"/>
<rect x="301" y="301" width="85" height="92" rx="22" stroke="#696969" stroke-width="2"/>
<rect x="401" y="301" width="85" height="92" rx="22" stroke="url(#paint0_linear_1008_38)" stroke-width="2"/>
<rect x="301" y="411" width="85" height="92" rx="22" stroke="url(#paint1_linear_1008_38)" stroke-width="2"/>
<rect x="101" y="411" width="85" height="92" rx="22" stroke="url(#paint2_linear_1008_38)" stroke-width="2"/>
<rect x="401" y="101" width="85" height="92" rx="22" stroke="url(#paint3_linear_1008_38)" stroke-width="2"/>
<rect x="101" y="301" width="85" height="92" rx="22" stroke="#696969" stroke-width="2"/>
<rect x="101" y="201" width="85" height="92" rx="22" stroke="#696969" stroke-width="2"/>
<rect x="201" y="201" width="85" height="92" rx="22" stroke="#1A12FF" stroke-width="2"/>
<rect x="201" y="101" width="85" height="92" rx="22" stroke="#696969" stroke-width="2"/>
<rect x="201" y="1" width="85" height="92" rx="22" stroke="url(#paint4_linear_1008_38)" stroke-width="2"/>
<rect x="301" y="201" width="185" height="92" rx="22" stroke="#696969" stroke-width="2"/>
<rect x="101" y="1" width="85" height="92" rx="22" stroke="#696969" stroke-width="2"/>
<rect x="303" y="1" width="86" height="192" rx="22" stroke="#696969" stroke-width="2"/>
<rect x="1" y="201" width="85" height="92" rx="22" stroke="url(#paint5_linear_1008_38)" stroke-width="2"/>
<rect x="1" y="101" width="189" height="92" rx="22" stroke="#696969" stroke-width="2"/>
<rect x="1" y="301" width="85" height="92" rx="22" stroke="#696969" stroke-width="2"/>
<defs>
<linearGradient id="paint0_linear_1008_38" x1="443.5" y1="300" x2="443.5" y2="394" gradientUnits="userSpaceOnUse">
<stop stop-color="#FF0099"/>
<stop offset="0.5" stop-color="#CC007A"/>
<stop offset="1" stop-color="#8000FF"/>
</linearGradient>
<linearGradient id="paint1_linear_1008_38" x1="343.5" y1="410" x2="343.5" y2="504" gradientUnits="userSpaceOnUse">
<stop stop-color="#00B3FF"/>
<stop offset="0.5" stop-color="#FF0099"/>
<stop offset="1" stop-color="#006B99"/>
</linearGradient>
<linearGradient id="paint2_linear_1008_38" x1="143.5" y1="410" x2="143.5" y2="504" gradientUnits="userSpaceOnUse">
<stop stop-color="#FF2A2A"/>
<stop offset="1" stop-color="#FF9900"/>
</linearGradient>
<linearGradient id="paint3_linear_1008_38" x1="443.5" y1="100" x2="443.5" y2="194" gradientUnits="userSpaceOnUse">
<stop stop-color="#00FF99"/>
<stop offset="1" stop-color="#8700EF"/>
</linearGradient>
<linearGradient id="paint4_linear_1008_38" x1="243.5" y1="0" x2="243.5" y2="94" gradientUnits="userSpaceOnUse">
<stop stop-color="#0C6DFF"/>
<stop offset="1" stop-color="#990707"/>
</linearGradient>
<linearGradient id="paint5_linear_1008_38" x1="43.5" y1="200" x2="43.5" y2="294" gradientUnits="userSpaceOnUse">
<stop stop-color="#FF0202"/>
<stop offset="1" stop-color="#4D9901"/>
</linearGradient>
</defs>
</svg>
