<svg xmlns="http://www.w3.org/2000/svg" style="display:none">

  <symbol id="icon-activity" viewBox="0 0 24 24" fill="none">
    <path d="M22 12h-2.48a2 2 0 0 0-1.93 1.46l-2.35 8.36a.25.25 0 0 1-.48 0L9.24 2.18a.25.25 0 0 0-.48 0l-2.35 8.36A2 2 0 0 1 4.49 12H2"/>
  </symbol>

  <symbol id="icon-bar-chart" viewBox="0 0 24 24" fill="none">
    <path d="M3 3v16a2 2 0 0 0 2 2h16"/>
    <path d="M7 16h8"/>
    <path d="M7 11h12"/>
    <path d="M7 6h3"/>
  </symbol>

  <symbol id="icon-alert-circle" viewBox="0 0 24 24" fill="none">
    <circle cx="12" cy="12" r="10"/>
    <line x1="12" x2="12" y1="8" y2="12"/>
    <line x1="12" x2="12.01" y1="16" y2="16"/>
  </symbol>

  <symbol id="icon-shield-check" viewBox="0 0 24 24" fill="none">
    <path d="M20 13c0 5-4 8-8 9-4-1-8-4-8-9V5l8-3 8 3z"/>
    <path d="m9 12 2 2 4-4"/>
  </symbol>

  <symbol id="icon-zap" viewBox="0 0 24 24" fill="none">
    <path d="M4 14a1 1 0 0 1-.78-1.63l9.9-10.2a.5.5 0 0 1 .86.46l-1.92 6.02A1 1 0 0 0 13 10h7a1 1 0 0 1 .78 1.63l-9.9 10.2a.5.5 0 0 1-.86-.46l1.92-6.02A1 1 0 0 0 11 14z"/>
  </symbol>

  <symbol id="icon-trending-up" viewBox="0 0 24 24" fill="none">
    <path d="M16 7h6v6"/>
    <path d="m22 7-8.5 8.5-5-5L2 17"/>
  </symbol>

</svg>
